HIERARCHY
ROOT Hips
{
    OFFSET 0.000000 0.000000 0.000000
    CHANNELS 6 Xposition Yposition Zposition Zrotation Xrotation Yrotation
    JOINT Spine
    {
        OFFSET -0.000000 7.236184 0.000000
        CHANNELS 3 Zrotation Xrotation Yrotation
        JOINT Spine1
        {
            OFFSET -0.000000 20.420147 0.000000
            CHANNELS 3 Zrotation Xrotation Yrotation
            JOINT Neck
            {
                OFFSET -0.000000 20.336288 1.848754
                CHANNELS 3 Zrotation Xrotation Yrotation
                JOINT Head
                {
                    OFFSET -0.000000 12.354461 -1.764923
                    CHANNELS 3 Zrotation Xrotation Yrotation
                    End Site
                    {
                        OFFSET -0.000000 22.061537 0.000000
                    }
                }
            }
            JOINT LeftShoulder
            {
                OFFSET 3.573296 18.396038 -0.314103
                CHANNELS 3 Zrotation Xrotation Yrotation
                JOINT LeftArm
                {
                    OFFSET 10.880760 0.000000 0.000000
                    CHANNELS 3 Zrotation Xrotation Yrotation
                    JOINT LeftForeArm
                    {
                        OFFSET 27.185530 0.000000 0.000000
                        CHANNELS 3 Zrotation Xrotation Yrotation
                        JOINT LeftHand
                        {
                            OFFSET 27.825975 0.000000 0.000000
                            CHANNELS 3 Zrotation Xrotation Yrotation
                            End Site
                            {
                                OFFSET 13.236923 0.000000 0.000000
                            }
                        }
                    }
                }
            }
            JOINT RightShoulder
            {
                OFFSET -3.474926 18.396038 -0.314103
                CHANNELS 3 Zrotation Xrotation Yrotation
                JOINT RightArm
                {
                    OFFSET -10.880760 0.000000 0.000000
                    CHANNELS 3 Zrotation Xrotation Yrotation
                    JOINT RightForeArm
                    {
                        OFFSET -27.185530 0.000000 0.000000
                        CHANNELS 3 Zrotation Xrotation Yrotation
                        JOINT RightHand
                        {
                            OFFSET -27.825975 0.000000 0.000000
                            CHANNELS 3 Zrotation Xrotation Yrotation
                            End Site
                            {
                                OFFSET -13.236923 0.000000 0.000000
                            }
                        }
                    }
                }
            }
        }
    }
    JOINT LeftUpLeg
    {
        OFFSET 8.824615 0.000000 0.000000
        CHANNELS 3 Zrotation Xrotation Yrotation
        JOINT LeftLeg
        {
            OFFSET -0.000000 -35.111282 0.000000
            CHANNELS 3 Zrotation Xrotation Yrotation
            JOINT LeftFoot
            {
                OFFSET -0.000000 -42.324711 0.000000
                CHANNELS 3 Zrotation Xrotation Yrotation
                JOINT LeftToeBase
                {
                    OFFSET -0.000000 -5.735999 13.236923
                    CHANNELS 3 Zrotation Xrotation Yrotation
                    End Site
                    {
                        OFFSET -0.000000 0.000000 3.529846
                    }
                }
            }
        }
    }
    JOINT RightUpLeg
    {
        OFFSET -8.824615 0.000000 0.000000
        CHANNELS 3 Zrotation Xrotation Yrotation
        JOINT RightLeg
        {
            OFFSET -0.000000 -35.111282 0.000000
            CHANNELS 3 Zrotation Xrotation Yrotation
            JOINT RightFoot
            {
                OFFSET -0.000000 -42.324711 0.000000
                CHANNELS 3 Zrotation Xrotation Yrotation
                JOINT RightToeBase
                {
                    OFFSET -0.000000 -5.735999 13.236923
                    CHANNELS 3 Zrotation Xrotation Yrotation
                    End Site
                    {
                        OFFSET -0.000000 0.000000 3.529846
                    }
                }
            }
        }
    }
}
MOTION
Frames:    10
Frame Time:    0.008333
-23.159676    86.345436    79.874611    -17.260431    17.019865    98.795197    0.499803    -11.747541    2.129091    7.197568    3.556370    1.853838    1.105903    11.573373    17.189871    -6.392581    -42.185730    14.625339    2.404013    20.984707    4.867482    -61.420147    36.953499    -24.421850    37.062553    1.472084    -47.453083    61.901939    10.079138    -13.826806    7.370112    13.302459    -13.241308    35.468887    23.237127    38.356003    -3.883127    -25.821600    141.487442    -18.387394    -13.827872    -10.017470    0.568517    -19.170919    -1.745617    -5.699529    17.567850    33.632042    -11.706995    21.118536    -22.505970    -0.016524    -9.057643    0.018640    -25.355686    -25.802132    -10.636125    2.302482    25.467735    2.098062    -8.452312    -4.055810    -20.564970    -2.571370    -3.492448    2.794822    
-23.203663    86.172539    79.807175    -17.252520    16.874878    98.357025    0.213303    -11.646098    1.949291    7.781530    3.530041    1.687246    0.925021    11.522568    17.282660    -6.746117    -42.515388    14.533601    2.376714    20.617809    4.652894    -60.630333    36.562042    -24.332445    36.260258    2.240072    -46.012653    62.127369    9.785084    -13.922089    7.352972    13.368371    -13.008354    35.469654    22.763712    38.510799    -3.890358    -25.595345    141.489395    -18.745365    -13.564701    -9.812440    0.610403    -18.935347    -1.003170    -5.299388    17.421598    32.550446    -11.873652    20.298622    -22.229168    -0.033743    -9.386503    0.038095    -25.244501    -26.447056    -10.811089    2.220518    26.183195    2.471901    -8.402726    -4.186944    -20.524237    -2.517151    -3.534650    2.736065    
-23.249458    86.015274    79.749763    -17.273449    16.782261    97.974777    -0.055173    -11.565429    1.768239    8.274504    3.496504    1.520687    0.719867    11.487678    17.350657    -7.146737    -42.826607    14.392834    2.375889    20.221529    4.416567    -59.837410    36.063068    -24.147802    35.371998    3.008566    -44.521378    62.364662    9.486841    -13.985698    7.294293    13.417704    -12.753081    35.462425    22.333443    38.655308    -3.863777    -25.321533    141.479202    -19.021627    -13.355087    -9.623100    0.638576    -18.767876    -0.203802    -4.900894    17.329367    31.359459    -12.063818    19.569185    -21.985079    -0.060859    -9.667626    0.068754    -25.201262    -27.054560    -11.030338    2.138692    26.839386    2.825880    -8.352830    -4.304820    -20.470541    -2.462598    -3.580053    2.676948    
-23.295654    85.874901    79.701355    -17.318987    16.736216    97.647614    -0.290001    -11.505514    1.590313    8.669306    3.454882    1.357441    0.497175    11.464574    17.393492    -7.611656    -43.104412    14.194315    2.403295    19.801468    4.160089    -59.037716    35.474800    -23.880449    34.397926    3.775065    -42.966866    62.610004    9.183267    -14.019833    7.195692    13.444390    -12.479015    35.429295    21.961325    38.787880    -3.808717    -25.025738    141.455719    -19.214741    -13.211191    -9.452134    0.647176    -18.658018    0.593723    -4.512581    17.274179    30.119905    -12.271847    18.930674    -21.763096    -0.096072    -9.906512    0.108594    -25.218956    -27.616669    -11.277638    2.063882    27.427698    3.147515    -8.301994    -4.409598    -20.406673    -2.408819    -3.624937    2.618663    
-23.340708    85.753288    79.661629    -17.384361    16.730776    97.372749    -0.477019    -11.465032    1.420695    8.960875    3.404161    1.201649    0.264141    11.449199    17.412106    -8.153896    -43.334042    13.932985    2.458146    19.365108    3.888878    -58.231194    34.817863    -23.545145    33.344551    4.533420    -41.346367    62.857903    8.875772    -14.027999    7.059091    13.443374    -12.189479    35.353218    21.661631    38.907204    -3.734458    -24.738571    141.416794    -19.324730    -13.139395    -9.301584    0.633325    -18.594032    1.330507    -4.145674    17.238302    28.905361    -12.488211    18.389816    -21.559849    -0.137679    -10.107692    0.155694    -25.287510    -28.125273    -11.533871    2.001777    27.939018    3.426729    -8.249792    -4.501173    -20.336905    -2.356920    -3.665942    2.562399    
-23.383595    85.651550    79.630623    -17.465576    16.760620    97.142944    -0.607518    -11.441076    1.263076    9.150544    3.342239    1.056302    0.024604    11.437257    17.408642    -8.786525    -43.503551    13.605279    2.537261    18.916801    3.608456    -57.412739    34.106014    -23.153574    32.212585    5.281887    -39.650101    63.103596    8.564438    -14.014726    6.884666    13.411890    -11.884550    35.221146    21.440987    39.013794    -3.650988    -24.485041    141.360565    -19.352993    -13.137843    -9.170121    0.596374    -18.563839    1.958732    -3.809765    17.204893    27.783699    -12.704606    17.953905    -21.375824    -0.184076    -10.277575    0.208241    -25.395613    -28.578238    -11.779440    1.956560    28.369036    3.657205    -8.195457    -4.579575    -20.265377    -2.307239    -3.700354    2.508515    
-23.423046    85.571930    79.609261    -17.557999    16.820814    96.952026    -0.676685    -11.430026    1.122572    9.242679    3.267812    0.925936    -0.216086    11.425432    17.386244    -9.509736    -43.603691    13.215430    2.633535    18.466602    3.329195    -56.589138    33.361210    -22.721140    31.020935    6.007202    -37.897587    63.338318    8.254852    -13.984551    6.674396    13.349478    -11.567815    35.028706    21.302191    39.107399    -3.569914    -24.286791    141.286560    -19.301556    -13.196675    -9.056026    0.539035    -18.557121    2.432433    -3.519760    17.160799    26.833960    -12.911010    17.638618    -21.218004    -0.232369    -10.420936    0.262958    -25.529451    -28.970526    -11.991522    1.930738    28.710426    3.833114    -8.139077    -4.643474    -20.197607    -2.260747    -3.725502    2.458061    
-23.459118    85.514832    79.598679    -17.660151    16.909060    96.789200    -0.685745    -11.427822    1.000565    9.246716    3.178128    0.812029    -0.459447    11.411388    17.347387    -10.337066    -43.632393    12.760277    2.741184    18.013775    3.054577    -55.749397    32.585464    -22.251392    29.765018    6.711029    -36.075409    63.557640    7.946770    -13.940542    6.425386    13.255817    -11.235911    34.774082    21.237778    39.190277    -3.499436    -24.151831    141.194061    -19.170670    -13.302061    -8.954081    0.465427    -18.566553    2.725390    -3.284765    17.096338    26.107649    -13.103544    17.456081    -21.092813    -0.279984    -10.546018    0.316930    -25.678417    -29.308283    -12.152222    1.924931    28.964939    3.953785    -8.079927    -4.692223    -20.137314    -2.217142    -3.740008    2.410705    
-23.491358    85.481918    79.600746    -17.768740    17.021620    96.649162    -0.639757    -11.430239    0.901297    9.174308    3.072871    0.718673    -0.702564    11.392278    17.294954    -11.251997    -43.589706    12.252529    2.850338    17.570133    2.794384    -54.904602    31.801027    -21.759155    28.477606    7.374581    -34.227619    63.752724    7.649859    -13.885375    6.141977    13.134956    -10.895478    34.469673    21.236313    39.262405    -3.447120    -24.081232    141.086548    -18.965401    -13.432394    -8.861115    0.384739    -18.588837    2.816190    -3.120101    17.009874    25.660385    -13.274030    17.423487    -21.010324    -0.322682    -10.657266    0.365352    -25.829172    -29.590210    -12.242263    1.938370    29.129160    4.017429    -8.019580    -4.723162    -20.089993    -2.177201    -3.742707    2.367287    
-23.520447    85.473396    79.617279    -17.883066    17.157730    96.525597    -0.547314    -11.432692    0.825652    9.037399    2.950669    0.647071    -0.946563    11.365116    17.229994    -12.250984    -43.480396    11.696264    2.954347    17.137690    2.551561    -54.049843    31.013409    -21.248844    27.170769    7.993044    -32.370125    63.920399    7.368426    -13.819847    5.824909    12.989796    -10.548048    34.128750    21.281609    39.324898    -3.416469    -24.065485    140.967224    -18.689842    -13.567669    -8.772962    0.306699    -18.625017    2.705167    -3.034132    16.905024    25.510654    -13.418374    17.552103    -20.977470    -0.357022    -10.760000    0.404325    -25.973740    -29.822187    -12.251119    1.968022    29.206144    4.026676    -7.958854    -4.734221    -20.058586    -2.140895    -3.733712    2.327782    
